<svg xmlns="http://www.w3.org/2000/svg" xmlns:xlink="http://www.w3.org/1999/xlink" width="119.735" height="122.088" viewBox="0 0 119.735 122.088"><defs><clipPath id="a"><rect width="119.735" height="122.088" fill="none"/></clipPath></defs><g clip-path="url(#a)"><path d="M25.866,114.7c.115.2.172.287.344.287a.424.424,0,0,0,.372-.315c1.348-3.929,3.929-12.589,3.929-14.166a1.167,1.167,0,0,0-1.175-1.262c-.345-.029-.488-.23-.488-.459,0-.258.173-.43.545-.43.574,0,1.52.085,2.495.085,2.266,0,2.925-.142,3.786-.142.43,0,.717.114.717.516,0,.315-.086.4-.832.545-1.176.229-1.606.86-2.208,2.036-1.176,2.265-3.814,9.578-6.6,17.148-.517,1.434-.831,1.835-1.807,1.835a1.5,1.5,0,0,1-1.663-1l-5.879-13.936-5.478,13.909a1.718,1.718,0,0,1-1.749,1.032,1.669,1.669,0,0,1-1.577-1c-.574-1.4-4.1-13.191-5.506-17.579A3.137,3.137,0,0,0,.831,99.358C.086,99.214,0,99.128,0,98.813c0-.4.287-.516.861-.516.716,0,2.667.142,4.931.142.976,0,1.922-.085,2.5-.085.372,0,.544.172.544.43,0,.229-.143.4-.487.459-.43.057-1,.257-1,.745,0,.947,3.958,13.307,4.417,14.138.115.2.172.287.345.287s.286-.143.372-.314l5.1-13.593c.315-.774.746-1.921,1.377-1.921.774,0,1.09,1.147,1.377,1.949Z" transform="translate(0 1.71)" fill="#fff"/><path d="M37.371,104.434a1.836,1.836,0,0,0-1.377-2.036c-.574-.086-.717-.2-.717-.487,0-.23.23-.4.574-.4.6,0,2.581.258,3.384.258.774,0,2.753-.258,3.327-.258.372,0,.573.172.573.4,0,.287-.143.4-.688.487a1.827,1.827,0,0,0-1.377,2.036V117.11a1.827,1.827,0,0,0,1.377,2.036c.544.086.688.2.688.487,0,.229-.2.4-.573.4-.574,0-2.553-.23-3.327-.23-.8,0-2.782.23-3.384.23-.344,0-.574-.173-.574-.4,0-.287.143-.4.717-.487a1.836,1.836,0,0,0,1.377-2.036Z" transform="translate(0.614 1.766)" fill="#fff"/><path d="M61.915,104.806c-.115-1.148-.459-2.122-1.692-2.409-.631-.142-.717-.257-.717-.459,0-.257.23-.372.6-.372.717,0,2.007.2,2.667.2s1.95-.2,2.668-.2c.372,0,.573.115.573.372,0,.2-.057.316-.688.459-1.233.287-1.577,1.262-1.692,2.409-.172,2.122-.143,12.646-.143,13.937,0,.544-.287,1.577-1.175,1.577-.632,0-.918-.373-1.32-.832-.631-.716-11.93-13.85-11.93-13.85s.028,9.032.2,11.155c.085,1.118.459,2.122,1.662,2.38.632.143.717.258.717.459,0,.287-.229.4-.574.4-.745,0-2.036-.229-2.7-.229s-1.921.229-2.668.229c-.344,0-.573-.115-.573-.4,0-.2.085-.315.716-.459,1.2-.257,1.578-1.262,1.663-2.38.172-2.122.086-11.643.086-12.618a1.5,1.5,0,0,0-1.377-1.72c-.545-.086-.688-.23-.688-.487s.2-.4.573-.4c.574,0,1.692.229,2.208.229,1.061,0,1.835-.114,2.409-.114s.746.142,1.262.975c1.061,1.692,10.123,12.072,10.123,12.072s-.028-7.8-.2-9.922" transform="translate(0.785 1.767)" fill="#fff"/><path d="M73.59,112.235v5.191a1.139,1.139,0,0,0,1.233,1.061,24.637,24.637,0,0,0,5.191-.287c1.662-.4,2.9-1.52,4.072-3.441.258-.43.43-.6.688-.6.23,0,.4.172.4.487,0,.4-1.2,3.212-1.2,4.445,0,.659-.287,1-.89,1-.659,0-3.813-.286-11.757-.286-.774,0-2.323.229-2.925.229-.372,0-.6-.086-.6-.43,0-.258.086-.344.717-.459a1.854,1.854,0,0,0,1.377-2.036V104.435a1.821,1.821,0,0,0-1.377-2.006c-.631-.115-.717-.2-.717-.459,0-.345.23-.46.6-.46s2.094.144,4.56.144c7.943,0,8.545-.173,9.205-.173.6,0,.889.345.889.976a36.951,36.951,0,0,0,.6,3.843.439.439,0,0,1-.43.487c-.344,0-.487-.287-.659-.688-1.09-2.065-2.179-3.27-6.452-3.27-2.208,0-2.523.487-2.523,1.233v4.99c0,.659.172.8.8.8,1.462,0,3.527.258,4.99-.574,1.09-.631,1.319-1.577,1.692-1.577a.385.385,0,0,1,.4.43,10.773,10.773,0,0,0-.287,2.121,22.583,22.583,0,0,0,.373,2.782c0,.315-.172.488-.373.488-.4,0-.746-1.118-1.548-1.635a3.467,3.467,0,0,0-2.351-.43c-3.384,0-3.7.028-3.7.774" transform="translate(1.18 1.766)" fill="#fff"/><path d="M88.729,101.738a2.128,2.128,0,0,0-1.635-2.381c-.659-.115-.831-.257-.831-.573,0-.287.258-.487.688-.487.689,0,2.868.286,3.786.286S93.8,98.3,94.493,98.3c.43,0,.689.2.689.487,0,.315-.172.458-.832.573a2.126,2.126,0,0,0-1.605,2.381V116.65a2.125,2.125,0,0,0,1.605,2.38c.66.115.832.258.832.574,0,.286-.258.487-.689.487-.688,0-2.839-.287-3.756-.287s-3.1.287-3.786.287c-.429,0-.688-.2-.688-.487,0-.315.172-.459.831-.574a2.127,2.127,0,0,0,1.635-2.38Z" transform="translate(1.501 1.71)" fill="#fff"/><path d="M113.944,104.806c-.115-1.148-.459-2.122-1.692-2.409-.631-.142-.717-.257-.717-.459,0-.257.23-.372.6-.372.717,0,2.007.2,2.667.2s1.95-.2,2.668-.2c.372,0,.573.115.573.372,0,.2-.057.316-.688.459-1.233.287-1.577,1.262-1.692,2.409-.172,2.122-.143,12.646-.143,13.937,0,.544-.287,1.577-1.175,1.577-.632,0-.918-.373-1.32-.832-.631-.716-11.93-13.85-11.93-13.85s.028,9.032.2,11.155c.085,1.118.459,2.122,1.662,2.38.632.143.717.258.717.459,0,.287-.229.4-.574.4-.745,0-2.036-.229-2.7-.229s-1.921.229-2.668.229c-.344,0-.573-.115-.573-.4,0-.2.085-.315.716-.459,1.2-.257,1.578-1.262,1.663-2.38.172-2.122.086-11.643.086-12.618a1.5,1.5,0,0,0-1.377-1.72c-.545-.086-.688-.23-.688-.487s.2-.4.573-.4c.574,0,1.692.229,2.208.229,1.061,0,1.835-.114,2.409-.114s.746.142,1.262.975c1.061,1.692,10.123,12.072,10.123,12.072s-.028-7.8-.2-9.922" transform="translate(1.691 1.767)" fill="#fff"/><path d="M83.751,47.251a85.944,85.944,0,0,0-3.441-8.429A80.383,80.383,0,0,0,76.047,30.8a.893.893,0,0,0-1.565.856l.013.027A99.471,99.471,0,0,1,80.9,48.143a56.311,56.311,0,0,1,1.807,8.515,28.734,28.734,0,0,1-.017,8.4,23.185,23.185,0,0,1-8.153,13.985,23.915,23.915,0,0,1-7.129,4.074,24.382,24.382,0,0,1-16.185,0A23.9,23.9,0,0,1,44.1,79.041a23.182,23.182,0,0,1-8.144-13.982,28.7,28.7,0,0,1-.012-8.4,56.162,56.162,0,0,1,1.81-8.512A99.275,99.275,0,0,1,44.166,31.7l.015-.033a.923.923,0,0,0-1.62-.88A80.1,80.1,0,0,0,38.3,38.812a85.724,85.724,0,0,0-3.438,8.432c-1.9,5.765-3.41,11.9-2.56,18.379a26.73,26.73,0,0,0,9.2,16.512,27.008,27.008,0,0,0,11.184,5.685,9.532,9.532,0,0,1,6.062,6.66.586.586,0,0,0,1.13,0,9.525,9.525,0,0,1,6.085-6.668A26.978,26.978,0,0,0,77.124,82.13a26.719,26.719,0,0,0,9.194-16.508c.847-6.477-.668-12.609-2.567-18.37" transform="translate(0.558 0.528)" fill="#fff"/><path d="M71.208,3.165s-33,32.783-33,59.336c0,8.421,6.7,15.21,11.73,15.21,7.089,0,10.182-6.445,13.147-6.445s2.578,4.77,7.506,4.77c4,0,9.615-5.071,9.615-13.54,0-18.433-12.491-29-14.42-30.157s-3.406.826-1.413,2.706c6.832,6.445,10.8,16.186,10.8,25.982,0,3.729-1.71,5.469-2.87,5.469-2.062,0-3.222-7.347-9.667-7.347-4.92,0-8.7,6.316-12.052,6.316-2.706,0-3.287-5.16-3.287-7.481,0-20.877,19.063-44.747,25.716-53.358,5.881-7.613.577-4.141-1.8-1.461" transform="translate(0.665 0)" fill="#fff"/><path d="M71.989,36.251c-4.554-8.452-9.241-9.8-8.019-11.022,1.681-1.681,5.609,2.927,8.019,11.022" transform="translate(1.11 0.433)" fill="#fff"/><path d="M67.971,41.7c-6.238-6.217-12.789-3.964-11.937-1.662s4.383-3.04,11.937,1.662" transform="translate(0.974 0.655)" fill="#fff"/></g></svg>