<svg xmlns="http://www.w3.org/2000/svg" xmlns:xlink="http://www.w3.org/1999/xlink" width="112.663" height="114.877" viewBox="0 0 112.663 114.877"><defs><clipPath id="a"><rect width="112.663" height="114.877" fill="none"/></clipPath></defs><g clip-path="url(#a)"><path d="M24.339,113.731c.108.189.162.27.324.27a.4.4,0,0,0,.35-.3c1.268-3.7,3.7-11.846,3.7-13.33A1.1,1.1,0,0,0,27.6,99.187c-.325-.028-.46-.216-.46-.432,0-.243.163-.4.513-.4.54,0,1.43.08,2.347.08,2.132,0,2.752-.134,3.562-.134.4,0,.675.107.675.485,0,.3-.081.377-.783.513-1.107.215-1.512.809-2.077,1.916-1.107,2.131-3.589,9.012-6.206,16.135-.486,1.349-.782,1.727-1.7,1.727a1.408,1.408,0,0,1-1.565-.945l-5.531-13.113L11.224,118.1a1.616,1.616,0,0,1-1.646.971,1.57,1.57,0,0,1-1.484-.945c-.54-1.321-3.859-12.412-5.181-16.54A2.952,2.952,0,0,0,.782,99.3C.081,99.16,0,99.079,0,98.782,0,98.4.27,98.3.81,98.3c.674,0,2.509.134,4.64.134.918,0,1.808-.08,2.348-.08.35,0,.512.162.512.4,0,.215-.135.377-.459.432-.4.054-.945.242-.945.7,0,.891,3.724,12.521,4.156,13.3.108.19.162.27.325.27s.269-.135.35-.3l4.8-12.791c.3-.729.7-1.807,1.3-1.807.729,0,1.025,1.079,1.3,1.834Z" transform="translate(0 -4.196)" fill="#fff"/><path d="M37.247,104.261a1.727,1.727,0,0,0-1.3-1.916c-.54-.081-.675-.189-.675-.459,0-.216.216-.378.54-.378.567,0,2.429.243,3.184.243.729,0,2.59-.243,3.13-.243.35,0,.539.162.539.378,0,.27-.135.377-.647.459a1.719,1.719,0,0,0-1.3,1.916v11.927a1.719,1.719,0,0,0,1.3,1.916c.512.081.647.189.647.459,0,.215-.189.378-.539.378-.54,0-2.4-.216-3.13-.216-.755,0-2.617.216-3.184.216-.324,0-.54-.163-.54-.378,0-.27.135-.377.675-.459a1.727,1.727,0,0,0,1.3-1.916Z" transform="translate(-1.506 -4.333)" fill="#fff"/><path d="M60.924,104.615c-.108-1.08-.432-2-1.592-2.267-.594-.134-.675-.242-.675-.432,0-.242.216-.35.567-.35.675,0,1.889.189,2.509.189s1.835-.189,2.51-.189c.35,0,.539.108.539.35,0,.19-.054.3-.647.432-1.16.27-1.484,1.187-1.592,2.267-.162,2-.135,11.9-.135,13.114,0,.512-.27,1.484-1.106,1.484-.594,0-.863-.351-1.242-.783-.594-.674-11.225-13.032-11.225-13.032s.027,8.5.19,10.5c.08,1.052.432,2,1.564,2.239.594.135.675.243.675.432,0,.27-.215.378-.54.378-.7,0-1.916-.215-2.536-.215s-1.807.215-2.51.215c-.324,0-.539-.108-.539-.378,0-.189.08-.3.674-.432,1.133-.242,1.485-1.187,1.565-2.239.162-2,.081-10.955.081-11.873a1.411,1.411,0,0,0-1.3-1.619c-.513-.081-.647-.216-.647-.459s.189-.378.539-.378c.54,0,1.592.215,2.077.215,1,0,1.727-.107,2.267-.107s.7.134,1.187.917c1,1.592,9.525,11.359,9.525,11.359s-.027-7.339-.189-9.336" transform="translate(-1.927 -4.336)" fill="#fff"/><path d="M73.248,111.6v4.884a1.071,1.071,0,0,0,1.16,1,23.182,23.182,0,0,0,4.884-.27,6.264,6.264,0,0,0,3.831-3.238c.243-.4.4-.567.647-.567.216,0,.378.162.378.459,0,.378-1.132,3.022-1.132,4.182,0,.62-.27.944-.838.944-.62,0-3.588-.269-11.063-.269-.729,0-2.186.215-2.752.215-.35,0-.567-.081-.567-.4,0-.243.081-.324.675-.432a1.744,1.744,0,0,0,1.3-1.916V104.26a1.714,1.714,0,0,0-1.3-1.888c-.594-.108-.675-.189-.675-.432,0-.325.216-.433.567-.433s1.97.136,4.291.136c7.474,0,8.04-.163,8.662-.163.567,0,.837.325.837.918a34.768,34.768,0,0,0,.566,3.616.413.413,0,0,1-.4.459c-.324,0-.459-.27-.62-.647-1.025-1.943-2.051-3.077-6.071-3.077-2.077,0-2.374.459-2.374,1.16v4.7c0,.62.162.755.755.755,1.376,0,3.319.243,4.7-.54,1.025-.594,1.241-1.484,1.592-1.484a.362.362,0,0,1,.377.4,10.137,10.137,0,0,0-.27,2,21.249,21.249,0,0,0,.351,2.617c0,.3-.162.46-.351.46-.377,0-.7-1.052-1.457-1.538a3.263,3.263,0,0,0-2.212-.4c-3.184,0-3.481.027-3.481.728" transform="translate(-2.894 -4.332)" fill="#fff"/><path d="M88.584,101.535a2,2,0,0,0-1.538-2.24c-.62-.108-.782-.242-.782-.539,0-.27.243-.459.647-.459.648,0,2.7.269,3.562.269s2.887-.269,3.534-.269c.4,0,.648.189.648.459,0,.3-.162.431-.783.539a2,2,0,0,0-1.511,2.24v14.031a2,2,0,0,0,1.511,2.239c.621.108.783.243.783.54,0,.269-.243.459-.648.459-.647,0-2.671-.27-3.534-.27s-2.914.27-3.562.27c-.4,0-.647-.19-.647-.459,0-.3.162-.432.782-.54a2,2,0,0,0,1.538-2.239Z" transform="translate(-3.682 -4.196)" fill="#fff"/><path d="M112.953,104.615c-.108-1.08-.432-2-1.592-2.267-.594-.134-.675-.242-.675-.432,0-.242.216-.35.567-.35.675,0,1.889.189,2.509.189s1.835-.189,2.51-.189c.35,0,.539.108.539.35,0,.19-.054.3-.647.432-1.16.27-1.484,1.187-1.592,2.267-.162,2-.135,11.9-.135,13.114,0,.512-.27,1.484-1.106,1.484-.594,0-.863-.351-1.242-.783-.594-.674-11.225-13.032-11.225-13.032s.027,8.5.19,10.5c.08,1.052.432,2,1.564,2.239.594.135.675.243.675.432,0,.27-.215.378-.54.378-.7,0-1.916-.215-2.536-.215s-1.807.215-2.51.215c-.324,0-.539-.108-.539-.378,0-.189.08-.3.674-.432,1.133-.242,1.485-1.187,1.565-2.239.162-2,.081-10.955.081-11.873a1.411,1.411,0,0,0-1.3-1.619c-.513-.081-.647-.216-.647-.459s.189-.378.539-.378c.54,0,1.592.215,2.077.215,1,0,1.727-.107,2.267-.107s.7.134,1.187.917c1,1.592,9.525,11.359,9.525,11.359s-.027-7.339-.189-9.336" transform="translate(-4.148 -4.336)" fill="#fff"/><path d="M80.7,46.253a80.868,80.868,0,0,0-3.238-7.931,75.637,75.637,0,0,0-4.011-7.544.84.84,0,0,0-1.472.805l.012.026a93.6,93.6,0,0,1,6.029,15.484,52.986,52.986,0,0,1,1.7,8.012,27.038,27.038,0,0,1-.016,7.906A21.816,21.816,0,0,1,72.031,76.17,22.5,22.5,0,0,1,65.323,80a22.942,22.942,0,0,1-15.229,0,22.491,22.491,0,0,1-6.705-3.835,21.812,21.812,0,0,1-7.663-13.156,27.007,27.007,0,0,1-.011-7.9,52.846,52.846,0,0,1,1.7-8.009,93.411,93.411,0,0,1,6.034-15.475l.014-.031a.868.868,0,0,0-1.524-.828,75.371,75.371,0,0,0-4.009,7.547A80.662,80.662,0,0,0,34.7,46.246c-1.784,5.424-3.209,11.2-2.409,17.294a25.151,25.151,0,0,0,8.66,15.537,25.413,25.413,0,0,0,10.524,5.349,8.969,8.969,0,0,1,5.7,6.267.552.552,0,0,0,1.064,0,8.962,8.962,0,0,1,5.726-6.274,25.385,25.385,0,0,0,10.5-5.348,25.141,25.141,0,0,0,8.651-15.533c.8-6.094-.629-11.864-2.415-17.285" transform="translate(-1.369 -1.296)" fill="#fff"/><path d="M69.259,2.978S38.211,33.825,38.211,58.81c0,7.924,6.307,14.312,11.037,14.312,6.671,0,9.581-6.065,12.37-6.065s2.426,4.488,7.063,4.488c3.76,0,9.048-4.771,9.048-12.74,0-17.345-11.753-27.284-13.568-28.376s-3.205.777-1.33,2.546a34.029,34.029,0,0,1,10.16,24.448c0,3.509-1.609,5.146-2.7,5.146-1.94,0-3.032-6.913-9.1-6.913-4.63,0-8.187,5.943-11.34,5.943-2.546,0-3.093-4.855-3.093-7.039,0-19.644,17.937-42.1,24.2-50.207,5.533-7.164.543-3.9-1.7-1.375" transform="translate(-1.631 0)" fill="#fff"/><path d="M71.5,35.58c-4.285-7.952-8.7-9.222-7.546-10.372,1.581-1.581,5.278,2.754,7.546,10.372" transform="translate(-2.722 -1.062)" fill="#fff"/><path d="M67.262,41.459c-5.869-5.85-12.033-3.73-11.232-1.564s4.124-2.86,11.232,1.564" transform="translate(-2.389 -1.608)" fill="#fff"/></g></svg>